<mxfile host="app.diagrams.net" modified="2021-06-17T07:19:11.658Z" agent="5.0 (Windows NT 10.0; Win64; x64) AppleWebKit/537.36 (KHTML, like Gecko) Chrome/91.0.4472.101 Safari/537.36" etag="6mYkmu83QfqBC0n0Uu9g" version="14.7.9" type="github" pages="2">
  <diagram name="2 Iterator" id="e7e014a7-5840-1c2e-5031-d8a46d1fe8dd">
    <mxGraphModel dx="2037" dy="520" grid="1" gridSize="10" guides="1" tooltips="1" connect="1" arrows="1" fold="1" page="1" pageScale="1" pageWidth="1169" pageHeight="826" background="#ffffff" math="0" shadow="0">
      <root>
        <mxCell id="0" />
        <mxCell id="1" parent="0" />
        <mxCell id="JFeSRVVw9KBUbHDQCU6g-44" value="«interface»&#xa;Iterable" style="swimlane;fontStyle=1;align=center;verticalAlign=top;childLayout=stackLayout;horizontal=1;startSize=40;horizontalStack=0;resizeParent=1;resizeParentMax=0;resizeLast=0;collapsible=1;marginBottom=0;" parent="1" vertex="1">
          <mxGeometry x="415" y="10" width="160" height="66" as="geometry" />
        </mxCell>
        <mxCell id="JFeSRVVw9KBUbHDQCU6g-47" value="CrearIterador()" style="text;strokeColor=none;fillColor=none;align=center;verticalAlign=top;spacingLeft=4;spacingRight=4;overflow=hidden;rotatable=0;points=[[0,0.5],[1,0.5]];portConstraint=eastwest;" parent="JFeSRVVw9KBUbHDQCU6g-44" vertex="1">
          <mxGeometry y="40" width="160" height="26" as="geometry" />
        </mxCell>
        <mxCell id="JFeSRVVw9KBUbHDQCU6g-48" value="«interface»&#xa;Iterador" style="swimlane;fontStyle=1;align=center;verticalAlign=top;childLayout=stackLayout;horizontal=1;startSize=40;horizontalStack=0;resizeParent=1;resizeParentMax=0;resizeLast=0;collapsible=1;marginBottom=0;" parent="1" vertex="1">
          <mxGeometry x="775" y="10" width="160" height="66" as="geometry" />
        </mxCell>
        <mxCell id="JFeSRVVw9KBUbHDQCU6g-49" value="Operaciones()" style="text;strokeColor=none;fillColor=none;align=center;verticalAlign=top;spacingLeft=4;spacingRight=4;overflow=hidden;rotatable=0;points=[[0,0.5],[1,0.5]];portConstraint=eastwest;" parent="JFeSRVVw9KBUbHDQCU6g-48" vertex="1">
          <mxGeometry y="40" width="160" height="26" as="geometry" />
        </mxCell>
        <mxCell id="JFeSRVVw9KBUbHDQCU6g-50" value="&lt;h1 style=&quot;text-align: right&quot;&gt;&lt;font color=&quot;#1a1a1a&quot;&gt;Iterator&lt;/font&gt;&lt;/h1&gt;&lt;p&gt;&lt;/p&gt;&lt;div style=&quot;text-align: right&quot;&gt;&lt;span style=&quot;color: rgb(26 , 26 , 26)&quot;&gt;Permite de recorrer todos los elementos de CUALQUIER estructura de datos secuencialmente (independientemente de la estructura)&lt;/span&gt;&lt;/div&gt;&lt;font color=&quot;#1a1a1a&quot;&gt;&lt;div style=&quot;text-align: right&quot;&gt;&lt;span&gt;El patron iterador me da los elementos que necesito de la estructura.&amp;nbsp;&lt;/span&gt;&lt;/div&gt;&lt;div style=&quot;text-align: right&quot;&gt;&lt;span&gt;&amp;nbsp;*ITERADOR: El mecanismo por el que recorremos la secuencia de inicio a fin. gracias al&amp;nbsp;&lt;/span&gt;&lt;span&gt;ENUMERADOR, responsable de sacar el elemento siguiente (segun las reglas de la secuencia enumerable)&lt;/span&gt;&lt;/div&gt;&lt;div style=&quot;text-align: right&quot;&gt;&lt;span&gt;Ejemplo: c# provee el patron iterador: foreach&lt;/span&gt;&lt;/div&gt;&lt;div style=&quot;text-align: right&quot;&gt;&lt;span&gt;&lt;br&gt;&lt;/span&gt;&lt;/div&gt;&lt;div style=&quot;text-align: right&quot;&gt;&lt;span&gt;Implementacion - Interfaces importantes:&lt;/span&gt;&lt;/div&gt;&lt;div style=&quot;text-align: right&quot;&gt;&lt;span&gt;&amp;nbsp;*ENUMERATOR: define al enumerador&lt;/span&gt;&lt;/div&gt;&lt;div style=&quot;text-align: right&quot;&gt;&lt;span&gt;&amp;nbsp;*ENUMERABLE: indica que la clase puede ser usada por el iterador&lt;/span&gt;&lt;/div&gt;&lt;div style=&quot;text-align: right&quot;&gt;&lt;span&gt;&lt;br&gt;&lt;/span&gt;&lt;/div&gt;&lt;div style=&quot;text-align: right&quot;&gt;&lt;span&gt;&lt;br&gt;&lt;/span&gt;&lt;/div&gt;&lt;div style=&quot;text-align: right&quot;&gt;&lt;span&gt;El iterable puede crear a su iterador.&lt;/span&gt;&lt;/div&gt;&lt;/font&gt;&lt;p&gt;&lt;/p&gt;" style="text;html=1;strokeColor=none;fillColor=none;spacing=5;spacingTop=-20;whiteSpace=wrap;overflow=hidden;rounded=0;align=center;" parent="1" vertex="1">
          <mxGeometry x="10" y="10" width="380" height="270" as="geometry" />
        </mxCell>
        <mxCell id="JFeSRVVw9KBUbHDQCU6g-52" value="CLIENTE" style="rounded=1;whiteSpace=wrap;html=1;align=center;" parent="1" vertex="1">
          <mxGeometry x="625" y="23" width="100" height="40" as="geometry" />
        </mxCell>
        <mxCell id="JFeSRVVw9KBUbHDQCU6g-53" value="" style="endArrow=classic;html=1;dashed=1;" parent="1" source="JFeSRVVw9KBUbHDQCU6g-52" target="JFeSRVVw9KBUbHDQCU6g-44" edge="1">
          <mxGeometry width="50" height="50" relative="1" as="geometry">
            <mxPoint x="695" y="159" as="sourcePoint" />
            <mxPoint x="745" y="109" as="targetPoint" />
          </mxGeometry>
        </mxCell>
        <mxCell id="JFeSRVVw9KBUbHDQCU6g-54" value="" style="endArrow=classic;html=1;dashed=1;" parent="1" source="JFeSRVVw9KBUbHDQCU6g-52" target="JFeSRVVw9KBUbHDQCU6g-48" edge="1">
          <mxGeometry width="50" height="50" relative="1" as="geometry">
            <mxPoint x="695" y="159" as="sourcePoint" />
            <mxPoint x="745" y="109" as="targetPoint" />
          </mxGeometry>
        </mxCell>
        <mxCell id="JFeSRVVw9KBUbHDQCU6g-55" value="Iterador Concreto" style="swimlane;fontStyle=1;align=center;verticalAlign=top;childLayout=stackLayout;horizontal=1;startSize=30;horizontalStack=0;resizeParent=1;resizeParentMax=0;resizeLast=0;collapsible=1;marginBottom=0;" parent="1" vertex="1">
          <mxGeometry x="775" y="129" width="160" height="134" as="geometry" />
        </mxCell>
        <mxCell id="JFeSRVVw9KBUbHDQCU6g-65" value="Iterable actual()&#xa;" style="text;strokeColor=none;fillColor=none;align=center;verticalAlign=top;spacingLeft=4;spacingRight=4;overflow=hidden;rotatable=0;points=[[0,0.5],[1,0.5]];portConstraint=eastwest;" parent="JFeSRVVw9KBUbHDQCU6g-55" vertex="1">
          <mxGeometry y="30" width="160" height="26" as="geometry" />
        </mxCell>
        <mxCell id="JFeSRVVw9KBUbHDQCU6g-56" value="void primero()&#xa;" style="text;strokeColor=none;fillColor=none;align=center;verticalAlign=top;spacingLeft=4;spacingRight=4;overflow=hidden;rotatable=0;points=[[0,0.5],[1,0.5]];portConstraint=eastwest;" parent="JFeSRVVw9KBUbHDQCU6g-55" vertex="1">
          <mxGeometry y="56" width="160" height="26" as="geometry" />
        </mxCell>
        <mxCell id="JFeSRVVw9KBUbHDQCU6g-64" value="void siguiente()&#xa;" style="text;strokeColor=none;fillColor=none;align=center;verticalAlign=top;spacingLeft=4;spacingRight=4;overflow=hidden;rotatable=0;points=[[0,0.5],[1,0.5]];portConstraint=eastwest;" parent="JFeSRVVw9KBUbHDQCU6g-55" vertex="1">
          <mxGeometry y="82" width="160" height="26" as="geometry" />
        </mxCell>
        <mxCell id="JFeSRVVw9KBUbHDQCU6g-66" value="bool fin()&#xa;" style="text;strokeColor=none;fillColor=none;align=center;verticalAlign=top;spacingLeft=4;spacingRight=4;overflow=hidden;rotatable=0;points=[[0,0.5],[1,0.5]];portConstraint=eastwest;" parent="JFeSRVVw9KBUbHDQCU6g-55" vertex="1">
          <mxGeometry y="108" width="160" height="26" as="geometry" />
        </mxCell>
        <mxCell id="JFeSRVVw9KBUbHDQCU6g-57" value="Iterable Concreto&#xa;Clase Contenedora" style="swimlane;fontStyle=1;align=center;verticalAlign=top;childLayout=stackLayout;horizontal=1;startSize=41;horizontalStack=0;resizeParent=1;resizeParentMax=0;resizeLast=0;collapsible=1;marginBottom=0;" parent="1" vertex="1">
          <mxGeometry x="415" y="156" width="160" height="67" as="geometry" />
        </mxCell>
        <mxCell id="JFeSRVVw9KBUbHDQCU6g-58" value="CrearIterador()" style="text;strokeColor=none;fillColor=none;align=center;verticalAlign=top;spacingLeft=4;spacingRight=4;overflow=hidden;rotatable=0;points=[[0,0.5],[1,0.5]];portConstraint=eastwest;" parent="JFeSRVVw9KBUbHDQCU6g-57" vertex="1">
          <mxGeometry y="41" width="160" height="26" as="geometry" />
        </mxCell>
        <mxCell id="JFeSRVVw9KBUbHDQCU6g-59" value="" style="endArrow=block;html=1;endFill=1;endSize=8;" parent="1" source="JFeSRVVw9KBUbHDQCU6g-57" target="JFeSRVVw9KBUbHDQCU6g-44" edge="1">
          <mxGeometry width="50" height="50" relative="1" as="geometry">
            <mxPoint x="695" y="159" as="sourcePoint" />
            <mxPoint x="745" y="109" as="targetPoint" />
          </mxGeometry>
        </mxCell>
        <mxCell id="JFeSRVVw9KBUbHDQCU6g-60" value="" style="endArrow=block;html=1;endFill=1;endSize=8;" parent="1" source="JFeSRVVw9KBUbHDQCU6g-55" target="JFeSRVVw9KBUbHDQCU6g-48" edge="1">
          <mxGeometry width="50" height="50" relative="1" as="geometry">
            <mxPoint x="615" y="159" as="sourcePoint" />
            <mxPoint x="665" y="109" as="targetPoint" />
          </mxGeometry>
        </mxCell>
        <mxCell id="JFeSRVVw9KBUbHDQCU6g-63" value="Clase que contiene la estructura de datos &lt;br&gt;iterable =&amp;nbsp;enumerable =&amp;nbsp;agregado" style="text;html=1;strokeColor=none;fillColor=none;align=center;verticalAlign=middle;whiteSpace=wrap;rounded=0;" parent="1" vertex="1">
          <mxGeometry x="390" y="230" width="230" height="50" as="geometry" />
        </mxCell>
        <mxCell id="JFeSRVVw9KBUbHDQCU6g-61" value="" style="endArrow=diamond;html=1;endFill=1;endSize=8;exitX=0;exitY=0.5;exitDx=0;exitDy=0;edgeStyle=orthogonalEdgeStyle;rounded=0;entryX=1;entryY=0.25;entryDx=0;entryDy=0;" parent="1" source="JFeSRVVw9KBUbHDQCU6g-65" target="JFeSRVVw9KBUbHDQCU6g-57" edge="1">
          <mxGeometry width="50" height="50" relative="1" as="geometry">
            <mxPoint x="695" y="159" as="sourcePoint" />
            <mxPoint x="745" y="109" as="targetPoint" />
          </mxGeometry>
        </mxCell>
        <mxCell id="JFeSRVVw9KBUbHDQCU6g-67" value="«interface»&#xa;IDocumento" style="swimlane;fontStyle=1;align=center;verticalAlign=top;childLayout=stackLayout;horizontal=1;startSize=40;horizontalStack=0;resizeParent=1;resizeParentMax=0;resizeLast=0;collapsible=1;marginBottom=0;" parent="1" vertex="1">
          <mxGeometry x="45" y="476" width="160" height="92" as="geometry" />
        </mxCell>
        <mxCell id="JFeSRVVw9KBUbHDQCU6g-68" value="void AgregarPagina()" style="text;strokeColor=none;fillColor=none;align=center;verticalAlign=top;spacingLeft=4;spacingRight=4;overflow=hidden;rotatable=0;points=[[0,0.5],[1,0.5]];portConstraint=eastwest;" parent="JFeSRVVw9KBUbHDQCU6g-67" vertex="1">
          <mxGeometry y="40" width="160" height="26" as="geometry" />
        </mxCell>
        <mxCell id="JFeSRVVw9KBUbHDQCU6g-88" value="string GetTitulo()" style="text;strokeColor=none;fillColor=none;align=center;verticalAlign=top;spacingLeft=4;spacingRight=4;overflow=hidden;rotatable=0;points=[[0,0.5],[1,0.5]];portConstraint=eastwest;" parent="JFeSRVVw9KBUbHDQCU6g-67" vertex="1">
          <mxGeometry y="66" width="160" height="26" as="geometry" />
        </mxCell>
        <mxCell id="JFeSRVVw9KBUbHDQCU6g-69" value="«interface»&#xa;Iterador" style="swimlane;fontStyle=1;align=center;verticalAlign=top;childLayout=stackLayout;horizontal=1;startSize=40;horizontalStack=0;resizeParent=1;resizeParentMax=0;resizeLast=0;collapsible=1;marginBottom=0;" parent="1" vertex="1">
          <mxGeometry x="410" y="377" width="160" height="144" as="geometry" />
        </mxCell>
        <mxCell id="JFeSRVVw9KBUbHDQCU6g-104" value="Iterable actual()&#xa;" style="text;strokeColor=none;fillColor=none;align=center;verticalAlign=top;spacingLeft=4;spacingRight=4;overflow=hidden;rotatable=0;points=[[0,0.5],[1,0.5]];portConstraint=eastwest;" parent="JFeSRVVw9KBUbHDQCU6g-69" vertex="1">
          <mxGeometry y="40" width="160" height="26" as="geometry" />
        </mxCell>
        <mxCell id="JFeSRVVw9KBUbHDQCU6g-103" value="void primero()&#xa;" style="text;strokeColor=none;fillColor=none;align=center;verticalAlign=top;spacingLeft=4;spacingRight=4;overflow=hidden;rotatable=0;points=[[0,0.5],[1,0.5]];portConstraint=eastwest;" parent="JFeSRVVw9KBUbHDQCU6g-69" vertex="1">
          <mxGeometry y="66" width="160" height="26" as="geometry" />
        </mxCell>
        <mxCell id="JFeSRVVw9KBUbHDQCU6g-102" value="void siguiente()&#xa;" style="text;strokeColor=none;fillColor=none;align=center;verticalAlign=top;spacingLeft=4;spacingRight=4;overflow=hidden;rotatable=0;points=[[0,0.5],[1,0.5]];portConstraint=eastwest;" parent="JFeSRVVw9KBUbHDQCU6g-69" vertex="1">
          <mxGeometry y="92" width="160" height="26" as="geometry" />
        </mxCell>
        <mxCell id="JFeSRVVw9KBUbHDQCU6g-101" value="bool fin()&#xa;" style="text;strokeColor=none;fillColor=none;align=center;verticalAlign=top;spacingLeft=4;spacingRight=4;overflow=hidden;rotatable=0;points=[[0,0.5],[1,0.5]];portConstraint=eastwest;" parent="JFeSRVVw9KBUbHDQCU6g-69" vertex="1">
          <mxGeometry y="118" width="160" height="26" as="geometry" />
        </mxCell>
        <mxCell id="JFeSRVVw9KBUbHDQCU6g-71" value="IMPRESORA" style="rounded=1;whiteSpace=wrap;html=1;align=center;" parent="1" vertex="1">
          <mxGeometry x="255" y="383" width="100" height="40" as="geometry" />
        </mxCell>
        <mxCell id="JFeSRVVw9KBUbHDQCU6g-72" value="" style="endArrow=classic;html=1;dashed=1;" parent="1" source="JFeSRVVw9KBUbHDQCU6g-71" target="JFeSRVVw9KBUbHDQCU6g-86" edge="1">
          <mxGeometry width="50" height="50" relative="1" as="geometry">
            <mxPoint x="325" y="519" as="sourcePoint" />
            <mxPoint x="375" y="469" as="targetPoint" />
          </mxGeometry>
        </mxCell>
        <mxCell id="JFeSRVVw9KBUbHDQCU6g-73" value="" style="endArrow=classic;html=1;dashed=1;entryX=0.013;entryY=0.181;entryDx=0;entryDy=0;entryPerimeter=0;" parent="1" source="JFeSRVVw9KBUbHDQCU6g-71" target="JFeSRVVw9KBUbHDQCU6g-69" edge="1">
          <mxGeometry width="50" height="50" relative="1" as="geometry">
            <mxPoint x="325" y="519" as="sourcePoint" />
            <mxPoint x="375" y="469" as="targetPoint" />
          </mxGeometry>
        </mxCell>
        <mxCell id="JFeSRVVw9KBUbHDQCU6g-74" value="IteradorDeArreglos" style="swimlane;fontStyle=1;align=center;verticalAlign=top;childLayout=stackLayout;horizontal=1;startSize=30;horizontalStack=0;resizeParent=1;resizeParentMax=0;resizeLast=0;collapsible=1;marginBottom=0;" parent="1" vertex="1">
          <mxGeometry x="320" y="558" width="160" height="134" as="geometry" />
        </mxCell>
        <mxCell id="JFeSRVVw9KBUbHDQCU6g-75" value="Iterable actual()&#xa;" style="text;strokeColor=none;fillColor=none;align=center;verticalAlign=top;spacingLeft=4;spacingRight=4;overflow=hidden;rotatable=0;points=[[0,0.5],[1,0.5]];portConstraint=eastwest;" parent="JFeSRVVw9KBUbHDQCU6g-74" vertex="1">
          <mxGeometry y="30" width="160" height="26" as="geometry" />
        </mxCell>
        <mxCell id="JFeSRVVw9KBUbHDQCU6g-76" value="void primero()&#xa;" style="text;strokeColor=none;fillColor=none;align=center;verticalAlign=top;spacingLeft=4;spacingRight=4;overflow=hidden;rotatable=0;points=[[0,0.5],[1,0.5]];portConstraint=eastwest;" parent="JFeSRVVw9KBUbHDQCU6g-74" vertex="1">
          <mxGeometry y="56" width="160" height="26" as="geometry" />
        </mxCell>
        <mxCell id="JFeSRVVw9KBUbHDQCU6g-77" value="void siguiente()&#xa;" style="text;strokeColor=none;fillColor=none;align=center;verticalAlign=top;spacingLeft=4;spacingRight=4;overflow=hidden;rotatable=0;points=[[0,0.5],[1,0.5]];portConstraint=eastwest;" parent="JFeSRVVw9KBUbHDQCU6g-74" vertex="1">
          <mxGeometry y="82" width="160" height="26" as="geometry" />
        </mxCell>
        <mxCell id="JFeSRVVw9KBUbHDQCU6g-78" value="bool fin()&#xa;" style="text;strokeColor=none;fillColor=none;align=center;verticalAlign=top;spacingLeft=4;spacingRight=4;overflow=hidden;rotatable=0;points=[[0,0.5],[1,0.5]];portConstraint=eastwest;" parent="JFeSRVVw9KBUbHDQCU6g-74" vertex="1">
          <mxGeometry y="108" width="160" height="26" as="geometry" />
        </mxCell>
        <mxCell id="JFeSRVVw9KBUbHDQCU6g-79" value="DocumentoDeTexto" style="swimlane;fontStyle=1;align=center;verticalAlign=top;childLayout=stackLayout;horizontal=1;startSize=30;horizontalStack=0;resizeParent=1;resizeParentMax=0;resizeLast=0;collapsible=1;marginBottom=0;" parent="1" vertex="1">
          <mxGeometry x="140" y="610" width="160" height="82" as="geometry" />
        </mxCell>
        <mxCell id="JFeSRVVw9KBUbHDQCU6g-80" value="Paginas" style="text;strokeColor=none;fillColor=none;align=center;verticalAlign=top;spacingLeft=4;spacingRight=4;overflow=hidden;rotatable=0;points=[[0,0.5],[1,0.5]];portConstraint=eastwest;" parent="JFeSRVVw9KBUbHDQCU6g-79" vertex="1">
          <mxGeometry y="30" width="160" height="26" as="geometry" />
        </mxCell>
        <mxCell id="JFeSRVVw9KBUbHDQCU6g-90" value="override GetTitulo()" style="text;strokeColor=none;fillColor=none;align=center;verticalAlign=top;spacingLeft=4;spacingRight=4;overflow=hidden;rotatable=0;points=[[0,0.5],[1,0.5]];portConstraint=eastwest;" parent="JFeSRVVw9KBUbHDQCU6g-79" vertex="1">
          <mxGeometry y="56" width="160" height="26" as="geometry" />
        </mxCell>
        <mxCell id="JFeSRVVw9KBUbHDQCU6g-81" value="" style="endArrow=block;html=1;endFill=1;endSize=8;edgeStyle=orthogonalEdgeStyle;rounded=0;" parent="1" source="JFeSRVVw9KBUbHDQCU6g-79" target="JFeSRVVw9KBUbHDQCU6g-67" edge="1">
          <mxGeometry width="50" height="50" relative="1" as="geometry">
            <mxPoint x="325" y="572" as="sourcePoint" />
            <mxPoint x="375" y="522" as="targetPoint" />
          </mxGeometry>
        </mxCell>
        <mxCell id="JFeSRVVw9KBUbHDQCU6g-82" value="" style="endArrow=block;html=1;endFill=1;endSize=8;rounded=0;edgeStyle=orthogonalEdgeStyle;" parent="1" source="JFeSRVVw9KBUbHDQCU6g-74" target="JFeSRVVw9KBUbHDQCU6g-69" edge="1">
          <mxGeometry width="50" height="50" relative="1" as="geometry">
            <mxPoint x="245" y="519" as="sourcePoint" />
            <mxPoint x="295" y="469" as="targetPoint" />
            <Array as="points">
              <mxPoint x="400" y="550" />
              <mxPoint x="490" y="550" />
            </Array>
          </mxGeometry>
        </mxCell>
        <mxCell id="JFeSRVVw9KBUbHDQCU6g-84" value="" style="endArrow=diamond;html=1;endFill=1;endSize=8;edgeStyle=orthogonalEdgeStyle;rounded=0;" parent="1" source="JFeSRVVw9KBUbHDQCU6g-105" target="JFeSRVVw9KBUbHDQCU6g-97" edge="1">
          <mxGeometry width="50" height="50" relative="1" as="geometry">
            <mxPoint x="325" y="519" as="sourcePoint" />
            <mxPoint x="375" y="469" as="targetPoint" />
            <Array as="points">
              <mxPoint x="580" y="740" />
              <mxPoint x="40" y="740" />
            </Array>
          </mxGeometry>
        </mxCell>
        <mxCell id="JFeSRVVw9KBUbHDQCU6g-85" value="" style="endArrow=none;html=1;endSize=8;entryX=1;entryY=0;entryDx=0;entryDy=0;exitX=1;exitY=1;exitDx=0;exitDy=0;" parent="1" source="JFeSRVVw9KBUbHDQCU6g-50" target="JFeSRVVw9KBUbHDQCU6g-50" edge="1">
          <mxGeometry width="50" height="50" relative="1" as="geometry">
            <mxPoint x="520" y="230" as="sourcePoint" />
            <mxPoint x="570" y="180" as="targetPoint" />
          </mxGeometry>
        </mxCell>
        <mxCell id="JFeSRVVw9KBUbHDQCU6g-86" value="«interface»&#xa;Iterable" style="swimlane;fontStyle=1;align=center;verticalAlign=top;childLayout=stackLayout;horizontal=1;startSize=40;horizontalStack=0;resizeParent=1;resizeParentMax=0;resizeLast=0;collapsible=1;marginBottom=0;" parent="1" vertex="1">
          <mxGeometry x="45" y="370" width="160" height="66" as="geometry" />
        </mxCell>
        <mxCell id="JFeSRVVw9KBUbHDQCU6g-87" value="CrearIterador()" style="text;strokeColor=none;fillColor=none;align=center;verticalAlign=top;spacingLeft=4;spacingRight=4;overflow=hidden;rotatable=0;points=[[0,0.5],[1,0.5]];portConstraint=eastwest;" parent="JFeSRVVw9KBUbHDQCU6g-86" vertex="1">
          <mxGeometry y="40" width="160" height="26" as="geometry" />
        </mxCell>
        <mxCell id="JFeSRVVw9KBUbHDQCU6g-89" value="" style="endArrow=block;html=1;endFill=1;endSize=8;" parent="1" source="JFeSRVVw9KBUbHDQCU6g-67" target="JFeSRVVw9KBUbHDQCU6g-86" edge="1">
          <mxGeometry width="50" height="50" relative="1" as="geometry">
            <mxPoint x="125" y="610" as="sourcePoint" />
            <mxPoint x="110" y="400" as="targetPoint" />
          </mxGeometry>
        </mxCell>
        <mxCell id="JFeSRVVw9KBUbHDQCU6g-97" value="Presentacion" style="swimlane;fontStyle=1;align=center;verticalAlign=top;childLayout=stackLayout;horizontal=1;startSize=30;horizontalStack=0;resizeParent=1;resizeParentMax=0;resizeLast=0;collapsible=1;marginBottom=0;" parent="1" vertex="1">
          <mxGeometry x="-40" y="610" width="160" height="82" as="geometry" />
        </mxCell>
        <mxCell id="JFeSRVVw9KBUbHDQCU6g-98" value="Diapositivas" style="text;strokeColor=none;fillColor=none;align=center;verticalAlign=top;spacingLeft=4;spacingRight=4;overflow=hidden;rotatable=0;points=[[0,0.5],[1,0.5]];portConstraint=eastwest;" parent="JFeSRVVw9KBUbHDQCU6g-97" vertex="1">
          <mxGeometry y="30" width="160" height="26" as="geometry" />
        </mxCell>
        <mxCell id="JFeSRVVw9KBUbHDQCU6g-99" value="override GetTitulo()" style="text;strokeColor=none;fillColor=none;align=center;verticalAlign=top;spacingLeft=4;spacingRight=4;overflow=hidden;rotatable=0;points=[[0,0.5],[1,0.5]];portConstraint=eastwest;" parent="JFeSRVVw9KBUbHDQCU6g-97" vertex="1">
          <mxGeometry y="56" width="160" height="26" as="geometry" />
        </mxCell>
        <mxCell id="JFeSRVVw9KBUbHDQCU6g-100" value="" style="endArrow=block;html=1;endFill=1;endSize=8;edgeStyle=orthogonalEdgeStyle;rounded=0;" parent="1" source="JFeSRVVw9KBUbHDQCU6g-97" target="JFeSRVVw9KBUbHDQCU6g-67" edge="1">
          <mxGeometry width="50" height="50" relative="1" as="geometry">
            <mxPoint x="325" y="572" as="sourcePoint" />
            <mxPoint x="375" y="522" as="targetPoint" />
          </mxGeometry>
        </mxCell>
        <mxCell id="JFeSRVVw9KBUbHDQCU6g-105" value="IteradorDeListas" style="swimlane;fontStyle=1;align=center;verticalAlign=top;childLayout=stackLayout;horizontal=1;startSize=30;horizontalStack=0;resizeParent=1;resizeParentMax=0;resizeLast=0;collapsible=1;marginBottom=0;" parent="1" vertex="1">
          <mxGeometry x="500" y="558" width="160" height="134" as="geometry" />
        </mxCell>
        <mxCell id="JFeSRVVw9KBUbHDQCU6g-106" value="Iterable actual()&#xa;" style="text;strokeColor=none;fillColor=none;align=center;verticalAlign=top;spacingLeft=4;spacingRight=4;overflow=hidden;rotatable=0;points=[[0,0.5],[1,0.5]];portConstraint=eastwest;" parent="JFeSRVVw9KBUbHDQCU6g-105" vertex="1">
          <mxGeometry y="30" width="160" height="26" as="geometry" />
        </mxCell>
        <mxCell id="JFeSRVVw9KBUbHDQCU6g-107" value="void primero()&#xa;" style="text;strokeColor=none;fillColor=none;align=center;verticalAlign=top;spacingLeft=4;spacingRight=4;overflow=hidden;rotatable=0;points=[[0,0.5],[1,0.5]];portConstraint=eastwest;" parent="JFeSRVVw9KBUbHDQCU6g-105" vertex="1">
          <mxGeometry y="56" width="160" height="26" as="geometry" />
        </mxCell>
        <mxCell id="JFeSRVVw9KBUbHDQCU6g-108" value="void siguiente()&#xa;" style="text;strokeColor=none;fillColor=none;align=center;verticalAlign=top;spacingLeft=4;spacingRight=4;overflow=hidden;rotatable=0;points=[[0,0.5],[1,0.5]];portConstraint=eastwest;" parent="JFeSRVVw9KBUbHDQCU6g-105" vertex="1">
          <mxGeometry y="82" width="160" height="26" as="geometry" />
        </mxCell>
        <mxCell id="JFeSRVVw9KBUbHDQCU6g-109" value="bool fin()&#xa;" style="text;strokeColor=none;fillColor=none;align=center;verticalAlign=top;spacingLeft=4;spacingRight=4;overflow=hidden;rotatable=0;points=[[0,0.5],[1,0.5]];portConstraint=eastwest;" parent="JFeSRVVw9KBUbHDQCU6g-105" vertex="1">
          <mxGeometry y="108" width="160" height="26" as="geometry" />
        </mxCell>
        <mxCell id="JFeSRVVw9KBUbHDQCU6g-110" value="" style="endArrow=block;html=1;endFill=1;endSize=8;rounded=0;edgeStyle=orthogonalEdgeStyle;" parent="1" source="JFeSRVVw9KBUbHDQCU6g-105" target="JFeSRVVw9KBUbHDQCU6g-69" edge="1">
          <mxGeometry width="50" height="50" relative="1" as="geometry">
            <mxPoint x="245" y="519" as="sourcePoint" />
            <mxPoint x="295" y="469" as="targetPoint" />
            <Array as="points">
              <mxPoint x="580" y="550" />
              <mxPoint x="490" y="550" />
            </Array>
          </mxGeometry>
        </mxCell>
        <mxCell id="JFeSRVVw9KBUbHDQCU6g-111" value="" style="endArrow=diamond;html=1;endFill=1;endSize=8;edgeStyle=orthogonalEdgeStyle;rounded=0;" parent="1" source="JFeSRVVw9KBUbHDQCU6g-74" target="JFeSRVVw9KBUbHDQCU6g-79" edge="1">
          <mxGeometry width="50" height="50" relative="1" as="geometry">
            <mxPoint x="325" y="519" as="sourcePoint" />
            <mxPoint x="375" y="469" as="targetPoint" />
            <Array as="points">
              <mxPoint x="400" y="720" />
              <mxPoint x="220" y="720" />
            </Array>
          </mxGeometry>
        </mxCell>
        <mxCell id="2lq2OYKsWKOns44vndsd-4" value="«interface»&#xa;Iterador" style="swimlane;fontStyle=1;align=center;verticalAlign=top;childLayout=stackLayout;horizontal=1;startSize=40;horizontalStack=0;resizeParent=1;resizeParentMax=0;resizeLast=0;collapsible=1;marginBottom=0;fillColor=#d5e8d4;strokeColor=#82b366;" parent="1" vertex="1">
          <mxGeometry x="1190" y="390" width="130" height="144" as="geometry" />
        </mxCell>
        <mxCell id="2lq2OYKsWKOns44vndsd-5" value="Iterable actual()&#xa;" style="text;strokeColor=none;fillColor=none;align=center;verticalAlign=top;spacingLeft=4;spacingRight=4;overflow=hidden;rotatable=0;points=[[0,0.5],[1,0.5]];portConstraint=eastwest;" parent="2lq2OYKsWKOns44vndsd-4" vertex="1">
          <mxGeometry y="40" width="130" height="26" as="geometry" />
        </mxCell>
        <mxCell id="2lq2OYKsWKOns44vndsd-6" value="void primero()&#xa;" style="text;strokeColor=none;fillColor=none;align=center;verticalAlign=top;spacingLeft=4;spacingRight=4;overflow=hidden;rotatable=0;points=[[0,0.5],[1,0.5]];portConstraint=eastwest;" parent="2lq2OYKsWKOns44vndsd-4" vertex="1">
          <mxGeometry y="66" width="130" height="26" as="geometry" />
        </mxCell>
        <mxCell id="2lq2OYKsWKOns44vndsd-7" value="void siguiente()&#xa;" style="text;strokeColor=none;fillColor=none;align=center;verticalAlign=top;spacingLeft=4;spacingRight=4;overflow=hidden;rotatable=0;points=[[0,0.5],[1,0.5]];portConstraint=eastwest;" parent="2lq2OYKsWKOns44vndsd-4" vertex="1">
          <mxGeometry y="92" width="130" height="26" as="geometry" />
        </mxCell>
        <mxCell id="2lq2OYKsWKOns44vndsd-8" value="bool fin()&#xa;" style="text;strokeColor=none;fillColor=none;align=center;verticalAlign=top;spacingLeft=4;spacingRight=4;overflow=hidden;rotatable=0;points=[[0,0.5],[1,0.5]];portConstraint=eastwest;" parent="2lq2OYKsWKOns44vndsd-4" vertex="1">
          <mxGeometry y="118" width="130" height="26" as="geometry" />
        </mxCell>
        <mxCell id="2lq2OYKsWKOns44vndsd-9" value="&lt;div style=&quot;text-align: left&quot;&gt;&amp;nbsp; &amp;nbsp; &amp;nbsp; &amp;nbsp; &amp;nbsp; &amp;nbsp; &amp;nbsp; &amp;nbsp; &amp;nbsp; &amp;nbsp; &amp;nbsp; &amp;nbsp; &amp;nbsp; &amp;nbsp; &amp;nbsp; &amp;nbsp; &amp;nbsp; &amp;nbsp; &amp;nbsp; &amp;nbsp; &amp;nbsp;CLIENTE&lt;/div&gt;&lt;div style=&quot;text-align: left&quot;&gt;Iterador IteradorDeColeccion = coleccionable.crearIterador();&lt;/div&gt;&lt;div style=&quot;text-align: left&quot;&gt;while(!IteradorDeColeccion.fin()){&lt;/div&gt;&lt;div style=&quot;text-align: left&quot;&gt;&lt;span&gt;	&lt;/span&gt;&lt;span style=&quot;white-space: pre&quot;&gt;	&lt;/span&gt;Console.WriteLine(IteradorDeColeccion.actual());&lt;/div&gt;&lt;div style=&quot;text-align: left&quot;&gt;&lt;span&gt;	&lt;/span&gt;&lt;span style=&quot;white-space: pre&quot;&gt;	&lt;/span&gt;IteradorDeColeccion.siguiente();&lt;/div&gt;&lt;div style=&quot;text-align: left&quot;&gt;}&lt;/div&gt;" style="rounded=1;whiteSpace=wrap;html=1;align=center;" parent="1" vertex="1">
          <mxGeometry x="950" y="250" width="370" height="103" as="geometry" />
        </mxCell>
        <mxCell id="2lq2OYKsWKOns44vndsd-10" value="" style="endArrow=classic;html=1;dashed=1;rounded=0;edgeStyle=orthogonalEdgeStyle;" parent="1" source="2lq2OYKsWKOns44vndsd-9" target="2lq2OYKsWKOns44vndsd-23" edge="1">
          <mxGeometry width="50" height="50" relative="1" as="geometry">
            <mxPoint x="1048" y="350" as="sourcePoint" />
            <mxPoint x="1140" y="482" as="targetPoint" />
            <Array as="points">
              <mxPoint x="1048" y="360" />
              <mxPoint x="1048" y="360" />
            </Array>
          </mxGeometry>
        </mxCell>
        <mxCell id="2lq2OYKsWKOns44vndsd-11" value="" style="endArrow=classic;html=1;dashed=1;entryX=0.5;entryY=0;entryDx=0;entryDy=0;edgeStyle=orthogonalEdgeStyle;rounded=0;" parent="1" source="2lq2OYKsWKOns44vndsd-9" target="2lq2OYKsWKOns44vndsd-4" edge="1">
          <mxGeometry width="50" height="50" relative="1" as="geometry">
            <mxPoint x="1090" y="532" as="sourcePoint" />
            <mxPoint x="1140" y="482" as="targetPoint" />
            <Array as="points">
              <mxPoint x="1255" y="360" />
              <mxPoint x="1255" y="360" />
            </Array>
          </mxGeometry>
        </mxCell>
        <mxCell id="2lq2OYKsWKOns44vndsd-22" value="" style="endArrow=diamond;html=1;endFill=1;endSize=8;edgeStyle=orthogonalEdgeStyle;rounded=0;exitX=0.019;exitY=0.139;exitDx=0;exitDy=0;exitPerimeter=0;" parent="1" source="2lq2OYKsWKOns44vndsd-30" target="2lq2OYKsWKOns44vndsd-26" edge="1">
          <mxGeometry width="50" height="50" relative="1" as="geometry">
            <mxPoint x="1090" y="532" as="sourcePoint" />
            <mxPoint x="1140" y="482" as="targetPoint" />
            <Array as="points">
              <mxPoint x="1190" y="590" />
            </Array>
          </mxGeometry>
        </mxCell>
        <mxCell id="2lq2OYKsWKOns44vndsd-23" value="«interface»&#xa;Iterable" style="swimlane;fontStyle=1;align=center;verticalAlign=top;childLayout=stackLayout;horizontal=1;startSize=40;horizontalStack=0;resizeParent=1;resizeParentMax=0;resizeLast=0;collapsible=1;marginBottom=0;fillColor=#d5e8d4;strokeColor=#82b366;" parent="1" vertex="1">
          <mxGeometry x="950" y="390" width="200" height="66" as="geometry" />
        </mxCell>
        <mxCell id="2lq2OYKsWKOns44vndsd-24" value="CrearIterador()" style="text;strokeColor=none;fillColor=none;align=center;verticalAlign=top;spacingLeft=4;spacingRight=4;overflow=hidden;rotatable=0;points=[[0,0.5],[1,0.5]];portConstraint=eastwest;" parent="2lq2OYKsWKOns44vndsd-23" vertex="1">
          <mxGeometry y="40" width="200" height="26" as="geometry" />
        </mxCell>
        <mxCell id="2lq2OYKsWKOns44vndsd-26" value="Pila" style="swimlane;fontStyle=1;align=center;verticalAlign=top;childLayout=stackLayout;horizontal=1;startSize=30;horizontalStack=0;resizeParent=1;resizeParentMax=0;resizeLast=0;collapsible=1;marginBottom=0;" parent="1" vertex="1">
          <mxGeometry x="950" y="571" width="200" height="80" as="geometry" />
        </mxCell>
        <mxCell id="VuRwERCF_Uo-g7NjCJsL-1" value="public Iterador CrearIterador() {&#xa;    return new IteradorDePila(this);&#xa;}" style="text;strokeColor=none;fillColor=none;align=left;verticalAlign=top;spacingLeft=4;spacingRight=4;overflow=hidden;rotatable=0;points=[[0,0.5],[1,0.5]];portConstraint=eastwest;" vertex="1" parent="2lq2OYKsWKOns44vndsd-26">
          <mxGeometry y="30" width="200" height="50" as="geometry" />
        </mxCell>
        <mxCell id="2lq2OYKsWKOns44vndsd-29" value="" style="endArrow=block;html=1;endFill=1;endSize=8;edgeStyle=orthogonalEdgeStyle;rounded=0;" parent="1" source="2lq2OYKsWKOns44vndsd-26" target="2lq2OYKsWKOns44vndsd-23" edge="1">
          <mxGeometry width="50" height="50" relative="1" as="geometry">
            <mxPoint x="1247.5" y="585" as="sourcePoint" />
            <mxPoint x="1047.5" y="581" as="targetPoint" />
          </mxGeometry>
        </mxCell>
        <mxCell id="2lq2OYKsWKOns44vndsd-30" value="IteradorDePila" style="swimlane;fontStyle=1;align=center;verticalAlign=top;childLayout=stackLayout;horizontal=1;startSize=30;horizontalStack=0;resizeParent=1;resizeParentMax=0;resizeLast=0;collapsible=1;marginBottom=0;" parent="1" vertex="1">
          <mxGeometry x="1187.5" y="571" width="135" height="108" as="geometry" />
        </mxCell>
        <mxCell id="VuRwERCF_Uo-g7NjCJsL-2" value="Pila pila;" style="text;strokeColor=none;fillColor=none;align=center;verticalAlign=top;spacingLeft=4;spacingRight=4;overflow=hidden;rotatable=0;points=[[0,0.5],[1,0.5]];portConstraint=eastwest;" vertex="1" parent="2lq2OYKsWKOns44vndsd-30">
          <mxGeometry y="30" width="135" height="26" as="geometry" />
        </mxCell>
        <mxCell id="VuRwERCF_Uo-g7NjCJsL-3" value="indice = 0;" style="text;strokeColor=none;fillColor=none;align=center;verticalAlign=top;spacingLeft=4;spacingRight=4;overflow=hidden;rotatable=0;points=[[0,0.5],[1,0.5]];portConstraint=eastwest;" vertex="1" parent="2lq2OYKsWKOns44vndsd-30">
          <mxGeometry y="56" width="135" height="26" as="geometry" />
        </mxCell>
        <mxCell id="VuRwERCF_Uo-g7NjCJsL-4" value="IteradorDePila(Iterable)" style="text;strokeColor=none;fillColor=none;align=center;verticalAlign=top;spacingLeft=4;spacingRight=4;overflow=hidden;rotatable=0;points=[[0,0.5],[1,0.5]];portConstraint=eastwest;" vertex="1" parent="2lq2OYKsWKOns44vndsd-30">
          <mxGeometry y="82" width="135" height="26" as="geometry" />
        </mxCell>
        <mxCell id="2lq2OYKsWKOns44vndsd-35" value="" style="endArrow=block;html=1;endFill=1;endSize=8;rounded=0;edgeStyle=orthogonalEdgeStyle;" parent="1" source="2lq2OYKsWKOns44vndsd-30" target="2lq2OYKsWKOns44vndsd-4" edge="1">
          <mxGeometry width="50" height="50" relative="1" as="geometry">
            <mxPoint x="1010" y="532" as="sourcePoint" />
            <mxPoint x="1060" y="482" as="targetPoint" />
            <Array as="points">
              <mxPoint x="1255" y="590" />
              <mxPoint x="1255" y="590" />
            </Array>
          </mxGeometry>
        </mxCell>
      </root>
    </mxGraphModel>
  </diagram>
  <diagram id="rHBkNH_Piywcx3Zwn9UF" name="2 Strategy">
    <mxGraphModel dx="868" dy="463" grid="1" gridSize="10" guides="1" tooltips="1" connect="1" arrows="1" fold="1" page="1" pageScale="1" pageWidth="850" pageHeight="1100" math="0" shadow="0">
      <root>
        <mxCell id="YPFpVN-y9JRvUvMn9emC-0" />
        <mxCell id="YPFpVN-y9JRvUvMn9emC-1" parent="YPFpVN-y9JRvUvMn9emC-0" />
        <mxCell id="YPFpVN-y9JRvUvMn9emC-2" value="&lt;h1&gt;&lt;font color=&quot;#1a1a1a&quot;&gt;Strategy&lt;/font&gt;&lt;/h1&gt;&lt;div&gt;&lt;font color=&quot;#1a1a1a&quot;&gt;Las estrategias permiten proporcionar distintas implementaciones de mismo comportamiento.&lt;/font&gt;&lt;/div&gt;&lt;div&gt;&lt;font color=&quot;#1a1a1a&quot;&gt;Define una familia de algoritmos, los encapsula y los hace intercambiables independientemente del cliente que los utilice.&amp;nbsp;&lt;/font&gt;&lt;/div&gt;&lt;div&gt;&lt;font color=&quot;#1a1a1a&quot;&gt;&lt;br&gt;&lt;/font&gt;&lt;/div&gt;&lt;div&gt;&lt;font color=&quot;#1a1a1a&quot;&gt;Son implementaciones del mismo algoritmo con diferentes variantes.&lt;/font&gt;&lt;/div&gt;&lt;div&gt;&lt;font color=&quot;#1a1a1a&quot;&gt;Cada clase implementa su propia variante.&amp;nbsp;&lt;/font&gt;&lt;/div&gt;&lt;div&gt;&lt;font color=&quot;#1a1a1a&quot;&gt;Resulta simple agregar o corregir estrategias.&lt;/font&gt;&lt;/div&gt;&lt;p&gt;&lt;/p&gt;" style="text;html=1;strokeColor=none;fillColor=none;spacing=5;spacingTop=-20;whiteSpace=wrap;overflow=hidden;rounded=0;align=right;" parent="YPFpVN-y9JRvUvMn9emC-1" vertex="1">
          <mxGeometry y="10" width="295" height="200" as="geometry" />
        </mxCell>
        <mxCell id="YPFpVN-y9JRvUvMn9emC-3" value="" style="endArrow=none;html=1;endSize=8;exitX=1;exitY=0;exitDx=0;exitDy=0;entryX=1;entryY=1;entryDx=0;entryDy=0;" parent="YPFpVN-y9JRvUvMn9emC-1" source="YPFpVN-y9JRvUvMn9emC-2" target="YPFpVN-y9JRvUvMn9emC-2" edge="1">
          <mxGeometry width="50" height="50" relative="1" as="geometry">
            <mxPoint x="520" y="120" as="sourcePoint" />
            <mxPoint x="570" y="70" as="targetPoint" />
          </mxGeometry>
        </mxCell>
        <mxCell id="YPFpVN-y9JRvUvMn9emC-4" value="&lt;&lt;interfaz&gt;&gt;&#xa;Estrategia" style="swimlane;fontStyle=1;align=center;verticalAlign=top;childLayout=stackLayout;horizontal=1;startSize=40;horizontalStack=0;resizeParent=1;resizeParentMax=0;resizeLast=0;collapsible=1;marginBottom=0;" parent="YPFpVN-y9JRvUvMn9emC-1" vertex="1">
          <mxGeometry x="540" y="20" width="160" height="66" as="geometry" />
        </mxCell>
        <mxCell id="YPFpVN-y9JRvUvMn9emC-5" value="Algoritmo()" style="text;strokeColor=none;fillColor=none;align=center;verticalAlign=top;spacingLeft=4;spacingRight=4;overflow=hidden;rotatable=0;points=[[0,0.5],[1,0.5]];portConstraint=eastwest;" parent="YPFpVN-y9JRvUvMn9emC-4" vertex="1">
          <mxGeometry y="40" width="160" height="26" as="geometry" />
        </mxCell>
        <mxCell id="YPFpVN-y9JRvUvMn9emC-6" value="EstrategiaConcreta B" style="swimlane;fontStyle=1;align=center;verticalAlign=top;childLayout=stackLayout;horizontal=1;startSize=30;horizontalStack=0;resizeParent=1;resizeParentMax=0;resizeLast=0;collapsible=1;marginBottom=0;" parent="YPFpVN-y9JRvUvMn9emC-1" vertex="1">
          <mxGeometry x="640" y="190" width="160" height="56" as="geometry" />
        </mxCell>
        <mxCell id="YPFpVN-y9JRvUvMn9emC-7" value="Metodo()" style="text;strokeColor=none;fillColor=none;align=center;verticalAlign=top;spacingLeft=4;spacingRight=4;overflow=hidden;rotatable=0;points=[[0,0.5],[1,0.5]];portConstraint=eastwest;" parent="YPFpVN-y9JRvUvMn9emC-6" vertex="1">
          <mxGeometry y="30" width="160" height="26" as="geometry" />
        </mxCell>
        <mxCell id="YPFpVN-y9JRvUvMn9emC-8" value="" style="endArrow=block;html=1;endFill=1;endSize=8;edgeStyle=orthogonalEdgeStyle;rounded=0;" parent="YPFpVN-y9JRvUvMn9emC-1" source="YPFpVN-y9JRvUvMn9emC-6" target="YPFpVN-y9JRvUvMn9emC-4" edge="1">
          <mxGeometry width="50" height="50" relative="1" as="geometry">
            <mxPoint x="385" y="169" as="sourcePoint" />
            <mxPoint x="435" y="119" as="targetPoint" />
          </mxGeometry>
        </mxCell>
        <mxCell id="YPFpVN-y9JRvUvMn9emC-9" value="EstrategiaConcreta A" style="swimlane;fontStyle=1;align=center;verticalAlign=top;childLayout=stackLayout;horizontal=1;startSize=30;horizontalStack=0;resizeParent=1;resizeParentMax=0;resizeLast=0;collapsible=1;marginBottom=0;" parent="YPFpVN-y9JRvUvMn9emC-1" vertex="1">
          <mxGeometry x="440" y="190" width="160" height="56" as="geometry" />
        </mxCell>
        <mxCell id="YPFpVN-y9JRvUvMn9emC-10" value="Metodo()" style="text;strokeColor=none;fillColor=none;align=center;verticalAlign=top;spacingLeft=4;spacingRight=4;overflow=hidden;rotatable=0;points=[[0,0.5],[1,0.5]];portConstraint=eastwest;" parent="YPFpVN-y9JRvUvMn9emC-9" vertex="1">
          <mxGeometry y="30" width="160" height="26" as="geometry" />
        </mxCell>
        <mxCell id="YPFpVN-y9JRvUvMn9emC-11" value="" style="endArrow=block;html=1;endFill=1;endSize=8;edgeStyle=orthogonalEdgeStyle;rounded=0;exitX=0.5;exitY=0;exitDx=0;exitDy=0;" parent="YPFpVN-y9JRvUvMn9emC-1" source="YPFpVN-y9JRvUvMn9emC-9" target="YPFpVN-y9JRvUvMn9emC-4" edge="1">
          <mxGeometry width="50" height="50" relative="1" as="geometry">
            <mxPoint x="385" y="169" as="sourcePoint" />
            <mxPoint x="435" y="119" as="targetPoint" />
          </mxGeometry>
        </mxCell>
        <mxCell id="YPFpVN-y9JRvUvMn9emC-12" value="Contexto" style="swimlane;fontStyle=1;align=center;verticalAlign=top;childLayout=stackLayout;horizontal=1;startSize=30;horizontalStack=0;resizeParent=1;resizeParentMax=0;resizeLast=0;collapsible=1;marginBottom=0;" parent="YPFpVN-y9JRvUvMn9emC-1" vertex="1">
          <mxGeometry x="330" y="20" width="160" height="56" as="geometry" />
        </mxCell>
        <mxCell id="YPFpVN-y9JRvUvMn9emC-13" value="accion()" style="text;strokeColor=none;fillColor=none;align=center;verticalAlign=top;spacingLeft=4;spacingRight=4;overflow=hidden;rotatable=0;points=[[0,0.5],[1,0.5]];portConstraint=eastwest;" parent="YPFpVN-y9JRvUvMn9emC-12" vertex="1">
          <mxGeometry y="30" width="160" height="26" as="geometry" />
        </mxCell>
        <mxCell id="YPFpVN-y9JRvUvMn9emC-14" value="" style="endArrow=diamond;html=1;endFill=1;endSize=8;edgeStyle=orthogonalEdgeStyle;rounded=0;" parent="YPFpVN-y9JRvUvMn9emC-1" source="YPFpVN-y9JRvUvMn9emC-4" target="YPFpVN-y9JRvUvMn9emC-12" edge="1">
          <mxGeometry width="50" height="50" relative="1" as="geometry">
            <mxPoint x="715" y="26.5" as="sourcePoint" />
            <mxPoint x="810" y="146.64" as="targetPoint" />
            <Array as="points">
              <mxPoint x="530" y="40" />
              <mxPoint x="530" y="40" />
            </Array>
          </mxGeometry>
        </mxCell>
        <mxCell id="YPFpVN-y9JRvUvMn9emC-15" value="&lt;&lt;interfaz&gt;&gt;&#xa;Politica de Venta" style="swimlane;fontStyle=1;align=center;verticalAlign=top;childLayout=stackLayout;horizontal=1;startSize=40;horizontalStack=0;resizeParent=1;resizeParentMax=0;resizeLast=0;collapsible=1;marginBottom=0;" parent="YPFpVN-y9JRvUvMn9emC-1" vertex="1">
          <mxGeometry x="290" y="290" width="160" height="66" as="geometry" />
        </mxCell>
        <mxCell id="YPFpVN-y9JRvUvMn9emC-16" value="vender(int cantidad)" style="text;strokeColor=none;fillColor=none;align=center;verticalAlign=top;spacingLeft=4;spacingRight=4;overflow=hidden;rotatable=0;points=[[0,0.5],[1,0.5]];portConstraint=eastwest;" parent="YPFpVN-y9JRvUvMn9emC-15" vertex="1">
          <mxGeometry y="40" width="160" height="26" as="geometry" />
        </mxCell>
        <mxCell id="YPFpVN-y9JRvUvMn9emC-17" value="Por Columnas" style="swimlane;fontStyle=1;align=center;verticalAlign=top;childLayout=stackLayout;horizontal=1;startSize=30;horizontalStack=0;resizeParent=1;resizeParentMax=0;resizeLast=0;collapsible=1;marginBottom=0;" parent="YPFpVN-y9JRvUvMn9emC-1" vertex="1">
          <mxGeometry x="290" y="440" width="160" height="56" as="geometry" />
        </mxCell>
        <mxCell id="YPFpVN-y9JRvUvMn9emC-18" value="vender(int cantidad)" style="text;strokeColor=none;fillColor=none;align=center;verticalAlign=top;spacingLeft=4;spacingRight=4;overflow=hidden;rotatable=0;points=[[0,0.5],[1,0.5]];portConstraint=eastwest;" parent="YPFpVN-y9JRvUvMn9emC-17" vertex="1">
          <mxGeometry y="30" width="160" height="26" as="geometry" />
        </mxCell>
        <mxCell id="YPFpVN-y9JRvUvMn9emC-19" value="" style="endArrow=block;html=1;endFill=1;endSize=8;edgeStyle=orthogonalEdgeStyle;rounded=0;" parent="YPFpVN-y9JRvUvMn9emC-1" source="YPFpVN-y9JRvUvMn9emC-17" target="YPFpVN-y9JRvUvMn9emC-15" edge="1">
          <mxGeometry width="50" height="50" relative="1" as="geometry">
            <mxPoint x="135" y="419" as="sourcePoint" />
            <mxPoint x="185" y="369" as="targetPoint" />
          </mxGeometry>
        </mxCell>
        <mxCell id="YPFpVN-y9JRvUvMn9emC-20" value="Por Filas" style="swimlane;fontStyle=1;align=center;verticalAlign=top;childLayout=stackLayout;horizontal=1;startSize=30;horizontalStack=0;resizeParent=1;resizeParentMax=0;resizeLast=0;collapsible=1;marginBottom=0;" parent="YPFpVN-y9JRvUvMn9emC-1" vertex="1">
          <mxGeometry x="90" y="440" width="160" height="56" as="geometry" />
        </mxCell>
        <mxCell id="YPFpVN-y9JRvUvMn9emC-21" value="vender(int cantidad)" style="text;strokeColor=none;fillColor=none;align=center;verticalAlign=top;spacingLeft=4;spacingRight=4;overflow=hidden;rotatable=0;points=[[0,0.5],[1,0.5]];portConstraint=eastwest;" parent="YPFpVN-y9JRvUvMn9emC-20" vertex="1">
          <mxGeometry y="30" width="160" height="26" as="geometry" />
        </mxCell>
        <mxCell id="YPFpVN-y9JRvUvMn9emC-22" value="" style="endArrow=block;html=1;endFill=1;endSize=8;edgeStyle=orthogonalEdgeStyle;rounded=0;exitX=0.5;exitY=0;exitDx=0;exitDy=0;" parent="YPFpVN-y9JRvUvMn9emC-1" source="YPFpVN-y9JRvUvMn9emC-20" target="YPFpVN-y9JRvUvMn9emC-15" edge="1">
          <mxGeometry width="50" height="50" relative="1" as="geometry">
            <mxPoint x="135" y="419" as="sourcePoint" />
            <mxPoint x="185" y="369" as="targetPoint" />
            <Array as="points">
              <mxPoint x="170" y="420" />
              <mxPoint x="370" y="420" />
            </Array>
          </mxGeometry>
        </mxCell>
        <mxCell id="YPFpVN-y9JRvUvMn9emC-23" value="Sala de Teatro" style="swimlane;fontStyle=1;align=center;verticalAlign=top;childLayout=stackLayout;horizontal=1;startSize=30;horizontalStack=0;resizeParent=1;resizeParentMax=0;resizeLast=0;collapsible=1;marginBottom=0;" parent="YPFpVN-y9JRvUvMn9emC-1" vertex="1">
          <mxGeometry x="40" y="270" width="220" height="134" as="geometry" />
        </mxCell>
        <mxCell id="YPFpVN-y9JRvUvMn9emC-24" value="PoliticaDeVenta politica;" style="text;strokeColor=none;fillColor=none;align=center;verticalAlign=top;spacingLeft=4;spacingRight=4;overflow=hidden;rotatable=0;points=[[0,0.5],[1,0.5]];portConstraint=eastwest;" parent="YPFpVN-y9JRvUvMn9emC-23" vertex="1">
          <mxGeometry y="30" width="220" height="26" as="geometry" />
        </mxCell>
        <mxCell id="YPFpVN-y9JRvUvMn9emC-25" value="Constructor (Politica por defecto)" style="text;strokeColor=none;fillColor=none;align=center;verticalAlign=top;spacingLeft=4;spacingRight=4;overflow=hidden;rotatable=0;points=[[0,0.5],[1,0.5]];portConstraint=eastwest;" parent="YPFpVN-y9JRvUvMn9emC-23" vertex="1">
          <mxGeometry y="56" width="220" height="26" as="geometry" />
        </mxCell>
        <mxCell id="YPFpVN-y9JRvUvMn9emC-26" value="vender(int cantidad) = politica.vender" style="text;strokeColor=none;fillColor=none;align=center;verticalAlign=top;spacingLeft=4;spacingRight=4;overflow=hidden;rotatable=0;points=[[0,0.5],[1,0.5]];portConstraint=eastwest;" parent="YPFpVN-y9JRvUvMn9emC-23" vertex="1">
          <mxGeometry y="82" width="220" height="26" as="geometry" />
        </mxCell>
        <mxCell id="YPFpVN-y9JRvUvMn9emC-27" value="cambiarPoliticaDeVenta()" style="text;strokeColor=none;fillColor=none;align=center;verticalAlign=top;spacingLeft=4;spacingRight=4;overflow=hidden;rotatable=0;points=[[0,0.5],[1,0.5]];portConstraint=eastwest;" parent="YPFpVN-y9JRvUvMn9emC-23" vertex="1">
          <mxGeometry y="108" width="220" height="26" as="geometry" />
        </mxCell>
        <mxCell id="YPFpVN-y9JRvUvMn9emC-28" value="" style="endArrow=diamond;html=1;endFill=1;endSize=8;edgeStyle=orthogonalEdgeStyle;rounded=0;entryX=1;entryY=0.5;entryDx=0;entryDy=0;" parent="YPFpVN-y9JRvUvMn9emC-1" source="YPFpVN-y9JRvUvMn9emC-15" target="YPFpVN-y9JRvUvMn9emC-24" edge="1">
          <mxGeometry width="50" height="50" relative="1" as="geometry">
            <mxPoint x="465" y="276.5" as="sourcePoint" />
            <mxPoint x="560" y="396.64" as="targetPoint" />
            <Array as="points">
              <mxPoint x="280" y="313" />
              <mxPoint x="280" y="313" />
            </Array>
          </mxGeometry>
        </mxCell>
        <mxCell id="YPFpVN-y9JRvUvMn9emC-29" value="Por Bloque" style="swimlane;fontStyle=1;align=center;verticalAlign=top;childLayout=stackLayout;horizontal=1;startSize=30;horizontalStack=0;resizeParent=1;resizeParentMax=0;resizeLast=0;collapsible=1;marginBottom=0;" parent="YPFpVN-y9JRvUvMn9emC-1" vertex="1">
          <mxGeometry x="490" y="440" width="160" height="56" as="geometry" />
        </mxCell>
        <mxCell id="YPFpVN-y9JRvUvMn9emC-30" value="vender(int cantidad)" style="text;strokeColor=none;fillColor=none;align=center;verticalAlign=top;spacingLeft=4;spacingRight=4;overflow=hidden;rotatable=0;points=[[0,0.5],[1,0.5]];portConstraint=eastwest;" parent="YPFpVN-y9JRvUvMn9emC-29" vertex="1">
          <mxGeometry y="30" width="160" height="26" as="geometry" />
        </mxCell>
        <mxCell id="YPFpVN-y9JRvUvMn9emC-31" value="" style="endArrow=block;html=1;endFill=1;endSize=8;edgeStyle=orthogonalEdgeStyle;rounded=0;" parent="YPFpVN-y9JRvUvMn9emC-1" source="YPFpVN-y9JRvUvMn9emC-29" target="YPFpVN-y9JRvUvMn9emC-15" edge="1">
          <mxGeometry width="50" height="50" relative="1" as="geometry">
            <mxPoint x="135" y="419" as="sourcePoint" />
            <mxPoint x="185" y="369" as="targetPoint" />
            <Array as="points">
              <mxPoint x="570" y="420" />
              <mxPoint x="370" y="420" />
            </Array>
          </mxGeometry>
        </mxCell>
        <mxCell id="IIMnGfmYf1-3YYUoe1mP-0" value="&lt;&lt;interfaz&gt;&gt;&#xa;EstrategiaDeComparacion" style="swimlane;fontStyle=1;align=center;verticalAlign=top;childLayout=stackLayout;horizontal=1;startSize=40;horizontalStack=0;resizeParent=1;resizeParentMax=0;resizeLast=0;collapsible=1;marginBottom=0;fillColor=#d5e8d4;strokeColor=#82b366;" vertex="1" parent="YPFpVN-y9JRvUvMn9emC-1">
          <mxGeometry x="425" y="560" width="160" height="118" as="geometry" />
        </mxCell>
        <mxCell id="IIMnGfmYf1-3YYUoe1mP-1" value="sosIgual(comp1, comp2);" style="text;strokeColor=none;fillColor=none;align=center;verticalAlign=top;spacingLeft=4;spacingRight=4;overflow=hidden;rotatable=0;points=[[0,0.5],[1,0.5]];portConstraint=eastwest;" vertex="1" parent="IIMnGfmYf1-3YYUoe1mP-0">
          <mxGeometry y="40" width="160" height="26" as="geometry" />
        </mxCell>
        <mxCell id="IIMnGfmYf1-3YYUoe1mP-13" value="sosMenor(comp1, comp2);" style="text;strokeColor=none;fillColor=none;align=center;verticalAlign=top;spacingLeft=4;spacingRight=4;overflow=hidden;rotatable=0;points=[[0,0.5],[1,0.5]];portConstraint=eastwest;" vertex="1" parent="IIMnGfmYf1-3YYUoe1mP-0">
          <mxGeometry y="66" width="160" height="26" as="geometry" />
        </mxCell>
        <mxCell id="IIMnGfmYf1-3YYUoe1mP-14" value="sosMayor(comp1, comp2);" style="text;strokeColor=none;fillColor=none;align=center;verticalAlign=top;spacingLeft=4;spacingRight=4;overflow=hidden;rotatable=0;points=[[0,0.5],[1,0.5]];portConstraint=eastwest;" vertex="1" parent="IIMnGfmYf1-3YYUoe1mP-0">
          <mxGeometry y="92" width="160" height="26" as="geometry" />
        </mxCell>
        <mxCell id="IIMnGfmYf1-3YYUoe1mP-2" value="PorCalificacion" style="swimlane;fontStyle=1;align=center;verticalAlign=top;childLayout=stackLayout;horizontal=1;startSize=30;horizontalStack=0;resizeParent=1;resizeParentMax=0;resizeLast=0;collapsible=1;marginBottom=0;" vertex="1" parent="YPFpVN-y9JRvUvMn9emC-1">
          <mxGeometry x="480" y="730" width="105" height="30" as="geometry" />
        </mxCell>
        <mxCell id="IIMnGfmYf1-3YYUoe1mP-4" value="" style="endArrow=block;html=1;endFill=1;endSize=8;edgeStyle=orthogonalEdgeStyle;rounded=0;" edge="1" parent="YPFpVN-y9JRvUvMn9emC-1" source="IIMnGfmYf1-3YYUoe1mP-2" target="IIMnGfmYf1-3YYUoe1mP-0">
          <mxGeometry width="50" height="50" relative="1" as="geometry">
            <mxPoint x="275" y="769" as="sourcePoint" />
            <mxPoint x="325" y="719" as="targetPoint" />
            <Array as="points">
              <mxPoint x="533" y="704" />
              <mxPoint x="470" y="704" />
            </Array>
          </mxGeometry>
        </mxCell>
        <mxCell id="IIMnGfmYf1-3YYUoe1mP-5" value="PorNombre" style="swimlane;fontStyle=1;align=center;verticalAlign=top;childLayout=stackLayout;horizontal=1;startSize=30;horizontalStack=0;resizeParent=1;resizeParentMax=0;resizeLast=0;collapsible=1;marginBottom=0;" vertex="1" parent="YPFpVN-y9JRvUvMn9emC-1">
          <mxGeometry x="357.5" y="730" width="105" height="30" as="geometry" />
        </mxCell>
        <mxCell id="IIMnGfmYf1-3YYUoe1mP-7" value="" style="endArrow=block;html=1;endFill=1;endSize=8;edgeStyle=orthogonalEdgeStyle;rounded=0;exitX=0.5;exitY=0;exitDx=0;exitDy=0;" edge="1" parent="YPFpVN-y9JRvUvMn9emC-1" source="IIMnGfmYf1-3YYUoe1mP-5" target="IIMnGfmYf1-3YYUoe1mP-0">
          <mxGeometry width="50" height="50" relative="1" as="geometry">
            <mxPoint x="275" y="769" as="sourcePoint" />
            <mxPoint x="325" y="719" as="targetPoint" />
            <Array as="points">
              <mxPoint x="410" y="704" />
              <mxPoint x="470" y="704" />
            </Array>
          </mxGeometry>
        </mxCell>
        <mxCell id="IIMnGfmYf1-3YYUoe1mP-8" value="Contexto Alumno" style="swimlane;fontStyle=1;align=center;verticalAlign=top;childLayout=stackLayout;horizontal=1;startSize=30;horizontalStack=0;resizeParent=1;resizeParentMax=0;resizeLast=0;collapsible=1;marginBottom=0;fillColor=#d5e8d4;strokeColor=#82b366;" vertex="1" parent="YPFpVN-y9JRvUvMn9emC-1">
          <mxGeometry x="160" y="560" width="180" height="110" as="geometry" />
        </mxCell>
        <mxCell id="IIMnGfmYf1-3YYUoe1mP-15" value="Estrategia e = new PorNombre;" style="text;strokeColor=none;fillColor=none;align=center;verticalAlign=top;spacingLeft=4;spacingRight=4;overflow=hidden;rotatable=0;points=[[0,0.5],[1,0.5]];portConstraint=eastwest;" vertex="1" parent="IIMnGfmYf1-3YYUoe1mP-8">
          <mxGeometry y="30" width="180" height="26" as="geometry" />
        </mxCell>
        <mxCell id="IIMnGfmYf1-3YYUoe1mP-9" value="sosIgual(comparable) {&#xa;    e.sosIgual(comparable, this);&#xa;}" style="text;strokeColor=none;fillColor=none;align=left;verticalAlign=top;spacingLeft=4;spacingRight=4;overflow=hidden;rotatable=0;points=[[0,0.5],[1,0.5]];portConstraint=eastwest;" vertex="1" parent="IIMnGfmYf1-3YYUoe1mP-8">
          <mxGeometry y="56" width="180" height="54" as="geometry" />
        </mxCell>
        <mxCell id="IIMnGfmYf1-3YYUoe1mP-10" value="" style="endArrow=diamond;html=1;endFill=1;endSize=8;edgeStyle=orthogonalEdgeStyle;rounded=0;" edge="1" parent="YPFpVN-y9JRvUvMn9emC-1" source="IIMnGfmYf1-3YYUoe1mP-0" target="IIMnGfmYf1-3YYUoe1mP-8">
          <mxGeometry width="50" height="50" relative="1" as="geometry">
            <mxPoint x="605" y="626.5" as="sourcePoint" />
            <mxPoint x="700" y="746.64" as="targetPoint" />
            <Array as="points">
              <mxPoint x="390" y="580" />
              <mxPoint x="390" y="580" />
            </Array>
          </mxGeometry>
        </mxCell>
      </root>
    </mxGraphModel>
  </diagram>
</mxfile>
